<?xml version="1.0" encoding="UTF-8"?>
<svg version="1.1" xmlns="http://www.w3.org/2000/svg" width="500" height="500">
<path d="M0 0 C0.72843133 -0.00297112 1.45686265 -0.00594224 2.20736766 -0.0090034 C4.66085993 -0.01771076 7.11430353 -0.01920037 9.56781006 -0.02069092 C11.32189539 -0.02531771 13.07597972 -0.03034218 14.83006287 -0.03573608 C19.60498802 -0.0488768 24.3798991 -0.05530847 29.15483952 -0.05974674 C32.13690697 -0.0626752 35.11897056 -0.0667796 38.10103607 -0.07125092 C47.42783505 -0.08493118 56.75462522 -0.09459485 66.08143353 -0.09845281 C76.85382535 -0.10293291 87.62609024 -0.1204764 98.39844346 -0.1494534 C106.7203797 -0.17106293 115.04228022 -0.18115672 123.36424422 -0.18249393 C128.33655022 -0.18354262 133.30873699 -0.18946384 138.28101349 -0.20731354 C142.95954438 -0.22378126 147.63786626 -0.22595603 152.31641579 -0.21717453 C154.03288902 -0.21640342 155.74937342 -0.22075663 157.46581841 -0.23063278 C159.81103883 -0.2433344 162.15551706 -0.23748556 164.50073242 -0.22705078 C165.81261158 -0.22851734 167.12449074 -0.2299839 168.47612381 -0.2314949 C172.33367727 0.17516066 174.72009752 1.10682478 178.0043335 3.14044189 C182.74329492 9.03212367 183.12739306 13.88755382 183.14477539 21.26235962 C183.14774651 21.96814734 183.15071764 22.67393506 183.15377879 23.40111029 C183.16243267 25.76003372 183.16397121 28.11890621 183.16546631 30.47784424 C183.17009675 32.17163704 183.17512171 33.8654288 183.18051147 35.55921936 C183.19361379 40.15635372 183.20007593 44.7534735 183.20452213 49.35062361 C183.20745573 52.22366627 183.21156103 55.09670497 183.21602631 57.96974564 C183.22969412 66.96175854 183.23936488 75.95376236 183.2432282 84.94578493 C183.24771049 95.32081513 183.26526931 105.69571369 183.29422879 116.07070386 C183.31584759 124.09462961 183.32593255 132.11851831 183.32726932 140.14247286 C183.32831699 144.93312115 183.33421715 149.72364556 183.35208893 154.51426315 C183.36857352 159.02047638 183.37072324 163.52647266 183.36194992 168.03270531 C183.36117982 169.68425897 183.36551878 171.33582432 183.37540817 172.98734856 C183.38814128 175.24667522 183.38224412 177.50523496 183.37182617 179.76455688 C183.37329273 181.02737173 183.37475929 182.29018658 183.37627029 183.59126854 C182.68203587 190.21593796 180.13833126 194.77654379 175.0043335 199.14044189 C171.45312098 200.3241794 168.61427664 200.28146325 164.86390686 200.30107117 C164.13194869 200.30615899 163.39999051 200.31124681 162.64585179 200.3164888 C160.1863274 200.3322197 157.7268324 200.34074004 155.26727295 200.34918213 C153.50643222 200.35872009 151.74559338 200.36861123 149.98475647 200.37882996 C144.19573187 200.41022218 138.40669287 200.43048278 132.61761475 200.44903564 C131.63267399 200.45233297 130.64773323 200.45563029 129.63294578 200.45902753 C120.34370356 200.48980891 111.05445811 200.51651612 101.76517963 200.53344631 C89.8844862 200.55535348 78.00424467 200.59732591 66.12373191 200.66688389 C57.76947792 200.71413491 49.41534581 200.73838136 41.06096238 200.7456432 C36.07167142 200.75059783 31.08288975 200.76566087 26.09374428 200.8053875 C21.39779387 200.8422866 16.70264293 200.85065286 12.00657463 200.83738136 C10.2860761 200.83743526 8.56554185 200.84770978 6.8451767 200.869133 C-8.79630953 201.0534489 -8.79630953 201.0534489 -14.66151142 195.91671848 C-18.01765133 191.4483978 -18.24766163 187.33983585 -18.25636292 181.85993958 C-18.26018846 181.13711208 -18.26401401 180.41428458 -18.26795548 179.66955322 C-18.27825564 177.25295532 -18.27429906 174.83659635 -18.27032471 172.41998291 C-18.27467282 170.68515809 -18.27985631 168.95033519 -18.28581238 167.21551514 C-18.29920257 162.50685919 -18.29978105 157.79828352 -18.29724908 153.08961225 C-18.29617943 149.15813105 -18.30106255 145.22666609 -18.3058545 141.29518837 C-18.31694965 132.02020518 -18.31738697 122.74526249 -18.31134033 113.47027588 C-18.30529891 103.90278248 -18.31761583 94.33543608 -18.3389104 84.76796776 C-18.35652407 76.55212039 -18.36252815 68.33631981 -18.35927266 60.12045425 C-18.35745936 55.2141536 -18.36010066 50.30795782 -18.3739872 45.40167427 C-18.38655717 40.78793077 -18.38462931 36.17441653 -18.37157631 31.56067657 C-18.36920921 29.86839407 -18.37195001 28.17609546 -18.38019943 26.48383141 C-18.39065747 24.17159748 -18.3825744 21.86013419 -18.36988831 19.54792786 C-18.37005605 18.25469384 -18.37022379 16.96145983 -18.37039661 15.6290369 C-17.89232722 11.17839244 -16.5323743 7.78663523 -13.46051025 4.49591064 C-8.45768381 0.67021983 -6.30719945 0.01431792 0 0 Z M12.0043335 30.14044189 C12.0043335 76.34044189 12.0043335 122.54044189 12.0043335 170.14044189 C14.62227363 171.44941196 16.54433113 171.26633562 19.47712708 171.26742554 C20.6395845 171.27024536 21.80204193 171.27306519 22.99972534 171.27597046 C24.28136566 171.27394623 25.56300598 171.271922 26.88348389 171.26983643 C28.24174547 171.27119088 29.60000669 171.27297106 30.95826721 171.27514648 C34.65232211 171.27971512 38.34634916 171.2779337 42.04040456 171.2747674 C45.89967377 171.27224139 49.75894054 171.27458196 53.61820984 171.27615356 C60.0988915 171.27797433 66.57956177 171.27557114 73.0602417 171.27081299 C80.56290856 171.26536825 88.06554827 171.26713493 95.56821448 171.27263939 C102.00049131 171.27717042 108.43275995 171.27782119 114.86503786 171.27520072 C118.71092864 171.27363819 122.55680664 171.27344359 126.40269661 171.27673721 C130.0166152 171.27961586 133.6304986 171.27764037 137.24441338 171.27184296 C139.21109849 171.26987983 141.17778657 171.27286916 143.14447021 171.27597046 C144.30410782 171.27315063 145.46374542 171.27033081 146.65852356 171.26742554 C147.67266358 171.26704851 148.68680361 171.26667149 149.73167515 171.26628304 C151.97142961 171.39565624 151.97142961 171.39565624 153.0043335 170.14044189 C153.10074847 168.33083318 153.12620747 166.51742061 153.12458801 164.70524597 C153.12596268 163.52588974 153.12733734 162.34653351 153.12875366 161.13143921 C153.12515839 159.82593109 153.12156311 158.52042297 153.11785889 157.175354 C153.11757702 155.79591372 153.11773475 154.41647328 153.11830139 153.03703308 C153.11858937 149.28100071 153.11269254 145.525 153.10572743 141.76897502 C153.099494 137.84784145 153.09889011 133.92670722 153.09770203 130.00556946 C153.09458868 122.57532579 153.08637524 115.14509676 153.07635254 107.71485955 C153.06519151 99.25792551 153.05968098 90.8009908 153.0546571 82.34405124 C153.04419263 64.94283965 153.02659312 47.54164232 153.0043335 30.14044189 C150.397091 28.83682065 148.49698397 29.01455305 145.57623291 29.01345825 C144.4236348 29.01063843 143.27103668 29.0078186 142.08351135 29.00491333 C140.17743355 29.00794968 140.17743355 29.00794968 138.23284912 29.01104736 C136.88606214 29.00969289 135.53927553 29.00791269 134.19248962 29.0057373 C130.52935825 29.00116847 126.86625497 29.00295028 123.20312309 29.00611639 C119.37501829 29.00864282 115.54691593 29.00630166 111.71881104 29.00473022 C105.28940396 29.00290936 98.86000836 29.00531267 92.43060303 29.0100708 C84.99044007 29.01551326 77.55030452 29.01375055 70.11014223 29.0082444 C63.72965399 29.00371091 57.34917401 29.00306388 50.96868467 29.00568306 C47.15462005 29.00724454 43.34056832 29.00744314 39.52650452 29.00414658 C35.94130987 29.00126445 32.35615066 29.00324987 28.77095985 29.00904083 C26.82235895 29.01100056 24.87375506 29.00801741 22.92515564 29.00491333 C21.19625847 29.00914307 21.19625847 29.00914307 19.43243408 29.01345825 C18.42659019 29.01383528 17.42074631 29.0142123 16.3844223 29.01460075 C13.98747359 28.98246968 13.98747359 28.98246968 12.0043335 30.14044189 Z " fill="#000000" transform="translate(176.99566650390625,149.85955810546875)"/>
<path d="M0 0 C8.59202913 6.57283266 15.42131801 15.98481519 16.91162109 26.91455078 C17.98878777 39.39286192 15.76172226 49.28083775 8.4375 59.625 C0.65938304 68.85837755 -9.29601166 73.59105497 -21.19140625 75.19140625 C-34.07885645 75.77293603 -45.01284931 70.48309837 -54.37109375 62.00390625 C-62.18923945 53.91674909 -65.80144276 42.80756587 -65.65234375 31.69140625 C-64.56737473 20.42912218 -59.82065406 10.76244918 -51.625 3.0625 C-36.42822066 -9.43714102 -16.64031293 -10.85786731 0 0 Z " fill="#212121" transform="translate(283.375,216.1875)"/>
<path d="M0 0 C0.66 0.66 1.32 1.32 2 2 C1.625 3.9375 1.625 3.9375 1 6 C1 6.99 1 7.98 1 9 C0.34 9.66 -0.32 10.32 -1 11 C-1.02688151 9.35425434 -1.04634123 7.70838587 -1.0625 6.0625 C-1.07410156 5.14597656 -1.08570313 4.22945312 -1.09765625 3.28515625 C-1 1 -1 1 0 0 Z " fill="#181818" transform="translate(219,244)"/>
</svg>
